# xmcd CD database file
#
# Track frame offsets:
#	150
#	41768
#	81471
#	115173
#	154748
#	192408
#	229302
#	260323
#	289685
#
# Disc length: 4373 seconds
#
# Revision: 0
# Processed by: cddbd v1.5.1PL0 Copyright (c) Steve Scherf et al.
# Submitted via: CDex 1.50
#
DISCID=7c111309
DTITLE=Various Artist - TRACE FORM
DYEAR=1900
DGENRE=Trance
TTITLE0=Addictive Solutions/ESKIMO
TTITLE1=FREAK OUT and RELAX/DRAP DROP
TTITLE2=ANNEXIA/HUJA BOY
TTITLE3=TECHNICAL SUPPORT/SPECTRUM
TTITLE4=ARABIAN nights on Mescaline RMX/G.M.S
TTITLE5=oups/Bamboo Forest
TTITLE6=eight style/I.B.I.S
TTITLE7=The Next Stage/The Lunatic Thunder vs I.B.I.S
TTITLE8=Frantic/Antix vs FREq
EXTD=
EXTT0=
EXTT1=
EXTT2=
EXTT3=
EXTT4=
EXTT5=
EXTT6=
EXTT7=
EXTT8=
PLAYORDER=
